<svg width="247" height="320" viewBox="0 0 247 320" fill="none" xmlns="http://www.w3.org/2000/svg">
    <path d="M147.468 120.276L163.326 140.27L172.461 151.301C190.157 173.134 199.005 196.231 199.005 220.591C199.005 244.263 191.191 265.004 175.563 282.814C154.19 307.29 126.21 319.528 91.6226 319.528C64.8488 319.528 42.9012 311.254 25.7798 294.708C8.65837 278.276 0.0976562 257.19 0.0976562 231.45C0.0976562 199.965 13.4271 173.708 40.0859 152.68C54.2197 141.534 67.2619 135.961 79.2124 135.961C85.4175 135.961 90.4735 137.742 94.3804 141.304C98.2873 144.866 100.241 149.463 100.241 155.093C100.241 162.677 95.7593 169.227 86.7964 174.743L73.0073 183.188C65.0786 188.13 58.4714 195.024 53.1855 203.872C47.8997 212.72 45.2568 221.453 45.2568 230.071C45.2568 243.745 49.8532 255.007 59.0459 263.854C68.3535 272.817 80.1317 277.299 94.3804 277.299C110.123 277.299 123.797 271.381 135.403 259.545C147.009 247.825 152.812 233.978 152.812 218.006C152.812 207.894 150.456 198.701 145.745 190.428C141.033 182.154 130.864 169.342 115.236 151.991C104.32 139.925 96.5062 129.354 91.7949 120.276H45.2568C29.3994 120.276 21.4707 114.818 21.4707 103.901C21.4707 95.9727 24.2285 89.8825 29.7441 85.6309C35.3747 81.2643 43.2459 79.0811 53.3579 79.0811H82.832C85.1302 56.3291 95.5295 37.5415 114.03 22.7183C132.53 7.78011 154.708 0.311035 180.562 0.311035C199.982 0.311035 215.782 5.6543 227.962 16.3408C240.257 27.0273 246.405 40.8739 246.405 57.8804C246.405 80.5174 236.695 97.8687 217.275 109.934C206.244 116.829 188.721 120.276 164.705 120.276H147.468ZM126.785 79.0811H168.152C191.478 79.0811 203.142 72.3014 203.142 58.7422C203.142 53.4564 200.729 49.2048 195.902 45.9873C191.191 42.7699 184.871 41.1611 176.942 41.1611C164.532 41.1611 153.214 45.0106 142.987 52.7095C132.875 60.4084 127.474 69.1989 126.785 79.0811Z" fill="#EC1839" />
</svg>