<?xml version="1.0" encoding="UTF-8"?>
<svg width="487" height="494" viewBox="0 0 487 494" fill="none" xmlns="http://www.w3.org/2000/svg">
    <rect width="412" height="410" rx="33" fill="#E1E6E9" />
    <rect width="412" height="67" rx="33.5" fill="#3A556A" />
    <rect y="34" width="412" height="45" fill="#3A556A" />
    <circle cx="36.5" cy="39.5" r="17.5" fill="#FCD462" />
    <circle cx="78.5" cy="39.5" r="17.5" fill="#27A2DB" />
    <circle cx="120.5" cy="39.5" r="17.5" fill="#44C4A1" />
    <rect x="160" y="22" width="224" height="35" rx="17.5" fill="#D9D9D9" />
    <path d="M90.9819 134.64H103.278L135.294 217H121.606L112.906 194.612H81.1219L72.5379 217H58.7339L90.9819 134.64ZM110.354 184.984L97.1299 148.908L83.4419 184.984H110.354ZM145.479 217V134.64H180.047C183.759 134.64 187.162 135.413 190.255 136.96C193.349 138.507 196.055 140.556 198.375 143.108C200.695 145.66 202.474 148.521 203.711 151.692C204.949 154.863 205.567 158.111 205.567 161.436C205.567 165.999 204.523 170.368 202.435 174.544C200.425 178.643 197.525 181.968 193.735 184.52C190.023 187.072 185.693 188.348 180.743 188.348H158.471V217H145.479ZM158.471 176.864H179.931C182.406 176.864 184.571 176.207 186.427 174.892C188.283 173.5 189.714 171.644 190.719 169.324C191.802 167.004 192.343 164.375 192.343 161.436C192.343 158.42 191.725 155.752 190.487 153.432C189.25 151.112 187.626 149.333 185.615 148.096C183.682 146.781 181.555 146.124 179.235 146.124H158.471V176.864ZM217.753 217V134.64H230.745V217H217.753Z" fill="black" />
    <path d="M486.087 318.602C487.803 322.969 486.347 327.895 482.811 331.094L460.296 351.102C460.868 355.316 461.18 359.633 461.18 364C461.18 368.367 460.868 372.684 460.296 376.898L482.811 396.906C486.347 400.105 487.803 405.031 486.087 409.398C483.799 415.441 481.043 421.281 477.923 426.816L475.479 430.93C472.047 436.516 468.2 441.797 463.988 446.824C460.868 450.43 455.824 451.699 451.248 450.277L422.286 441.238C415.318 446.469 407.154 450.836 399.407 454.188L392.907 483.184C391.867 487.754 388.227 491.004 383.444 492.223C376.268 493.391 368.884 494 360.877 494C353.805 494 346.421 493.391 339.246 492.223C334.462 491.004 330.822 487.754 329.782 483.184L323.282 454.188C315.067 450.836 307.371 446.469 300.403 441.238L271.461 450.277C266.865 451.699 261.795 450.43 258.717 446.824C254.5 441.797 250.652 436.516 247.22 430.93L244.787 426.816C241.63 421.281 238.885 415.441 236.581 409.398C234.897 405.031 236.316 400.105 239.883 396.906L262.377 376.898C261.805 372.684 261.509 368.367 261.509 364C261.509 359.633 261.805 355.316 262.377 351.102L239.883 331.094C236.316 327.895 234.897 323.02 236.581 318.602C238.885 312.559 241.636 306.719 244.787 301.184L247.215 297.07C250.652 291.484 254.5 286.203 258.717 281.201C261.795 277.57 266.865 276.311 271.461 277.743L300.403 286.762C307.371 281.511 315.067 277.144 323.282 273.828L329.782 244.832C330.822 240.221 334.462 236.559 339.246 235.782C346.421 234.61 353.805 234 361.345 234C368.884 234 376.268 234.61 383.444 235.782C388.227 236.559 391.867 240.221 392.907 244.832L399.407 273.828C407.154 277.144 415.318 281.511 422.286 286.762L451.248 277.743C455.824 276.311 460.868 277.57 463.988 281.201C468.2 286.203 472.047 291.484 475.479 297.07L477.923 301.184C481.043 306.719 483.799 312.559 486.087 318.602ZM361.345 404.625C384.327 404.625 402.943 386.445 402.943 363.543C402.943 341.555 384.327 322.918 361.345 322.918C338.362 322.918 319.746 341.555 319.746 363.543C319.746 386.445 338.362 404.625 361.345 404.625Z" fill="#27A2DB" />
    <ellipse cx="360" cy="363.5" rx="90" ry="92.5" fill="#D9D9D9" />
    <ellipse cx="360" cy="363.5" rx="50" ry="52.5" fill="#1C75A1" />
</svg>